# xmcd
#
# Track frame offsets:
#	150
#	21432
#	41327
#	62552
#	85235
#	111932
#	131582
#	149010
#	170205
#	191127
#	212872
#	228762
#	249900
#	273092
#
# Disc length: 3932 seconds
#
# Revision: 1
# Processed by: cddbd v1.5.1PL0 Copyright (c) Steve Scherf et al.
# Submitted via: CDex 1.50Beta5
#
DISCID=cb0f5a0e
DTITLE=田村英里子 - Ballad
DYEAR=1994
DGENRE=Pop
TTITLE0=May be Dream
TTITLE1=星座を胸につけた夜
TTITLE2=去年のドレスは似合わない
TTITLE3=街路樹のafternoon
TTITLE4=Deep Blue
TTITLE5=てのひらの砂
TTITLE6=I Love Me
TTITLE7=少女でいられたら
TTITLE8=ひとりが目にしみる
TTITLE9=From Memories
TTITLE10=風の輪郭
TTITLE11=Dear…
TTITLE12=まぼろしの愛でも
TTITLE13=悲しみでは終わらない
EXTD=
EXTT0=
EXTT1=
EXTT2=
EXTT3=
EXTT4=
EXTT5=
EXTT6=
EXTT7=
EXTT8=
EXTT9=
EXTT10=
EXTT11=
EXTT12=
EXTT13=
PLAYORDER=
